<?xml version="1.0" encoding="UTF-8"?>
<svg version="1.1" xmlns="http://www.w3.org/2000/svg" width="500" height="500">
<path d="M0 0 C43.23 0 86.46 0 131 0 C120.44414894 49.2606383 120.44414894 49.2606383 116 69 C117.0372522 68.54560547 117.0372522 68.54560547 118.09545898 68.08203125 C121.20865159 66.71946905 124.32305563 65.35969843 127.4375 64 C128.52611328 63.52304688 129.61472656 63.04609375 130.73632812 62.5546875 C131.77080078 62.10351562 132.80527344 61.65234375 133.87109375 61.1875 C134.82943115 60.76855469 135.78776855 60.34960938 136.77514648 59.91796875 C139 59 139 59 140 59 C139.39343703 67.97897009 137.56953373 76.62069375 135.67138672 85.39770508 C135.12156567 87.95346394 134.58983371 90.51258828 134.05859375 93.07226562 C133.70942722 94.70335955 133.35920487 96.3342279 133.0078125 97.96484375 C132.77325851 99.1085569 132.77325851 99.1085569 132.53396606 100.27537537 C131.07563612 106.86635009 131.07563612 106.86635009 128 109 C126.21459961 110.01708984 126.21459961 110.01708984 124.15234375 110.9609375 C123.33934814 111.34008301 122.52635254 111.71922852 121.6887207 112.10986328 C120.32686646 112.73610596 120.32686646 112.73610596 118.9375 113.375 C110.65352596 117.25006437 102.44507325 121.25363726 94.2734375 125.359375 C93.33442093 125.83102081 92.39540436 126.30266663 91.42793274 126.78860474 C87.59775985 128.7141247 83.76860661 130.64160353 79.94284058 132.5758667 C77.2200485 133.95230473 74.49493853 135.32406193 71.76953125 136.6953125 C70.94436005 137.1146405 70.11918884 137.53396851 69.26901245 137.96600342 C68.50194977 138.35121155 67.73488708 138.73641968 66.94458008 139.13330078 C66.27670975 139.47096466 65.60883942 139.80862854 64.92073059 140.15652466 C62.96597844 141.01494033 61.08233019 141.54477397 59 142 C57.54666871 136.93100845 56.10448949 131.85902786 54.67260742 126.78393555 C54.18381 125.05747903 53.69196247 123.33188306 53.19702148 121.60717773 C52.48660764 119.12963617 51.78717806 116.64921881 51.08984375 114.16796875 C50.86594467 113.39599655 50.64204559 112.62402435 50.41136169 111.82865906 C48.88612829 106.34161512 48.88612829 106.34161512 50 103 C51.78735352 101.77661133 51.78735352 101.77661133 54.12890625 100.58203125 C54.99201416 100.13698242 55.85512207 99.69193359 56.74438477 99.23339844 C57.67436279 98.76450195 58.60434082 98.29560547 59.5625 97.8125 C60.50601318 97.31911133 61.44952637 96.82572266 62.42163086 96.31738281 C66.82277098 94.03225407 71.20309445 91.86080671 75.8125 90.02734375 C76.53493896 89.72272217 77.25737793 89.41810059 78.00170898 89.10424805 C80.0625 88.25 80.0625 88.25 82.02368164 87.60473633 C84.26125524 86.65202295 85.41635713 85.86817507 87 84 C88.92637796 79.12844831 89.94944919 74.11220419 91 69 C91.31729105 67.56114335 91.63704814 66.12282835 91.95922852 64.68505859 C92.92730078 60.31821318 93.84153626 55.94221171 94.75 51.5625 C95.8225 46.426875 96.895 41.29125 98 36 C86.78 36.33 75.56 36.66 64 37 C63.27296875 40.8775 62.5459375 44.755 61.796875 48.75 C61.05395047 52.52221913 60.29394237 56.29061813 59.53222656 60.05908203 C59.00840654 62.66888597 58.51437601 65.27958252 58.03222656 67.89794922 C53.77521705 90.9085747 53.77521705 90.9085747 48.90039062 95.53515625 C45.95597757 97.49809828 43.36063466 98.92239772 40 100 C40.9872261 105.25033604 42.08542167 110.29248751 43.75 115.375 C44.8814968 119.46601152 45.02306788 122.43173874 44.23852539 126.59692383 C44.04364532 127.64643219 43.84876526 128.69594055 43.64797974 129.7772522 C42.62063366 134.88679054 41.55746295 139.98498048 40.43359375 145.07421875 C40.19463882 146.16466995 39.9556839 147.25512115 39.70948792 148.37861633 C39.20929232 150.65696029 38.70756314 152.93496806 38.2043457 155.21264648 C37.43131086 158.7155452 36.66559808 162.21999343 35.90039062 165.72460938 C35.41189498 167.94540859 34.92297825 170.16611524 34.43359375 172.38671875 C34.08982948 173.96304329 34.08982948 173.96304329 33.73912048 175.57121277 C33.52542313 176.53344254 33.31172577 177.4956723 33.09155273 178.48706055 C32.81081154 179.76180489 32.81081154 179.76180489 32.5243988 181.06230164 C32 183 32 183 31 184 C29.55710213 184.09295815 28.10970215 184.11746513 26.66381836 184.11352539 C25.28249977 184.11341209 25.28249977 184.11341209 23.87327576 184.11329651 C22.87224319 184.10813522 21.87121063 184.10297394 20.83984375 184.09765625 C19.82024063 184.0962413 18.80063751 184.09482635 17.75013733 184.09336853 C14.47922893 184.08775097 11.20838787 184.0751955 7.9375 184.0625 C5.72591244 184.05748726 3.51432382 184.05292396 1.30273438 184.04882812 C-4.13153432 184.03777583 -9.56576022 184.02062436 -15 184 C-14.44506761 176.49134861 -13.13307499 169.31035727 -11.48730469 161.97045898 C-11.23184372 160.80946686 -10.97638275 159.64847473 -10.71318054 158.45230103 C-10.01656887 155.29130765 -9.31494342 152.13147816 -8.6111784 148.97207141 C-7.86835913 145.63088561 -7.1325435 142.28815823 -6.39605713 138.9455719 C-4.99687341 132.59983926 -3.59228734 126.25531677 -2.18536019 119.9112969 C0.31838482 108.62115842 2.81451105 97.32933701 5.30633807 86.0365625 C6.31499318 81.46668009 7.32818662 76.89781894 8.34259033 72.32920837 C9.40945976 67.52361892 10.45521321 62.71414638 11.48669434 57.90084839 C12.48861584 53.24334728 13.58006072 48.61916369 14.73303223 43.99685669 C15.25570267 41.77282243 15.77797796 39.54869526 16.29980469 37.32446289 C16.56782017 36.32889342 16.83583565 35.33332396 17.11197281 34.30758572 C18.39826489 28.61067962 18.23544435 25.50786509 15.13336182 20.45896912 C12.3412681 16.54547913 9.14678085 13.13596068 5.72314453 9.77197266 C0 3.88665344 0 3.88665344 0 0 Z " fill="#000000" transform="translate(126,130)"/>
<path d="M0 0 C41.25 0 82.5 0 125 0 C123.48179758 3.79550605 122.08629982 6.67696545 119.9453125 10.0703125 C119.0322937 11.52401245 119.0322937 11.52401245 118.10083008 13.00708008 C117.44880615 14.03599365 116.79678223 15.06490723 116.125 16.125 C115.45170654 17.19451904 114.77841309 18.26403809 114.0847168 19.3659668 C112.06033031 22.57976111 110.03057792 25.79011516 108 29 C106.92024622 30.71203358 105.84079115 32.42425562 104.76171875 34.13671875 C102.32886241 37.99543078 99.89117007 41.85105819 97.45166016 45.70556641 C94.96526467 49.63545958 92.48287225 53.56788032 90 57.5 C89.00001836 59.08334493 88.00001838 60.66667828 87 62.25 C86.505 63.03375 86.01 63.8175 85.5 64.625 C57 109.75 57 109.75 55.49780273 112.12841797 C54.50505336 113.7003116 53.51237671 115.27225116 52.51977539 116.84423828 C49.90945754 120.97799275 47.29761161 125.1107716 44.68359375 129.2421875 C44.14025391 130.10134766 43.59691406 130.96050781 43.03710938 131.84570312 C41.99851439 133.48792597 40.95947752 135.12986947 39.91992188 136.77148438 C39.45005859 137.51462891 38.98019531 138.25777344 38.49609375 139.0234375 C38.08544678 139.67231934 37.6747998 140.32120117 37.25170898 140.98974609 C35.8068076 143.31026843 34.40112173 145.65283477 33 148 C44.2225531 148.14588837 52.39676881 144.70177251 62.25 139.9375 C63.71271858 139.24929504 65.17634892 138.56302475 66.64086914 137.87866211 C70.15337341 136.2320907 73.6550525 134.56409886 77.15240479 132.88562012 C80.5196673 131.27156775 83.89683363 129.67849878 87.27441406 128.08618164 C88.6713348 127.42508811 90.06545018 126.75801859 91.45605469 126.08374023 C95.78777666 124 95.78777666 124 98 124 C97.36008543 130.9961281 96.09169345 137.68213941 94.53125 144.52734375 C94.29088013 145.59747208 94.05051025 146.6676004 93.80285645 147.77015686 C93.29748002 150.01534349 92.78975279 152.26000214 92.27978516 154.50415039 C91.49714808 157.95005684 90.72262241 161.39771385 89.94921875 164.84570312 C89.45620257 167.03135684 88.96272931 169.21690751 88.46875 171.40234375 C88.23643677 172.43560287 88.00412354 173.468862 87.76477051 174.53343201 C87.54784546 175.48524857 87.33092041 176.43706512 87.10742188 177.41772461 C86.91724487 178.25661728 86.72706787 179.09550995 86.53112793 179.95982361 C86 182 86 182 85 184 C43.75 184 2.5 184 -40 184 C-38.54728298 180.36820746 -37.33490636 177.73503802 -35.26953125 174.54296875 C-34.72151855 173.69001221 -34.17350586 172.83705566 -33.60888672 171.95825195 C-33.0160791 171.04390381 -32.42327148 170.12955566 -31.8125 169.1875 C-30.53945876 167.20631092 -29.26735575 165.22451873 -27.99609375 163.2421875 C-27.33722168 162.21577148 -26.67834961 161.18935547 -25.99951172 160.13183594 C-22.75413376 155.04859925 -19.564189 149.9311092 -16.375 144.8125 C-11.93663199 137.69554196 -7.48622199 130.58689745 -3 123.5 C1.52591704 116.34941891 6.01892947 109.17876551 10.5 102 C15.45316285 94.06493305 20.42740837 86.14395086 25.43041992 78.24023438 C30.20507243 70.69044017 34.93621737 63.11359378 39.66210938 55.53320312 C43.73878829 48.99898327 47.85457905 42.49082524 52 36 C40.46492984 35.7474711 32.27184479 39.55521316 22.1875 44.625 C20.02548536 45.68787084 17.86053135 46.74457665 15.69534302 47.80096436 C14.26764069 48.49784196 12.8409307 49.19675647 11.41525269 49.89776611 C6.34098427 52.38319049 1.22208039 54.74688849 -3.94921875 57.0234375 C-4.62918411 57.32496735 -5.30914948 57.62649719 -6.00971985 57.93716431 C-10.75267197 60 -10.75267197 60 -13 60 C-9.1580929 39.87236172 -4.56974928 19.99265312 0 0 Z " fill="#1990C7" transform="translate(262,130)"/>
<path d="M0 0 C0.94101562 0.70898438 1.88203125 1.41796875 2.8515625 2.1484375 C9.57645556 7.37890988 15.80264395 13.16465918 22 19 C22.71027344 19.65613281 23.42054688 20.31226563 24.15234375 20.98828125 C59.48958714 54.73571001 78.72850791 105.99727045 80.21875 154.1171875 C81.36322558 211.59577428 59.99802013 261.54316042 21 303 C20.30648438 303.75925781 19.61296875 304.51851563 18.8984375 305.30078125 C-13.7274623 339.75322757 -64.12518742 359.4553652 -110.98193359 361.10498047 C-168.42990149 362.55083365 -219.01062345 343.19008478 -261 304 C-262.29357422 302.80503906 -262.29357422 302.80503906 -263.61328125 301.5859375 C-300.04135116 266.68668673 -319.57987408 216.0500918 -321.28515625 166.21875 C-322.38430806 111.21405278 -302.37834615 60.13148099 -264.38134766 20.44433594 C-263.15491961 19.16198382 -261.94170513 17.86702339 -260.73046875 16.5703125 C-254.40628959 9.97627041 -247.28950065 4.47259152 -240 -1 C-239.16726562 -1.62777344 -238.33453125 -2.25554688 -237.4765625 -2.90234375 C-167.4192906 -53.71179863 -68.73768235 -52.25290632 0 0 Z M-242 4 C-243.02609375 4.82113281 -244.0521875 5.64226562 -245.109375 6.48828125 C-258.62405102 17.51390254 -270.78811297 29.84862196 -281 44 C-281.41556152 44.57121582 -281.83112305 45.14243164 -282.25927734 45.73095703 C-306.12343889 78.91749279 -318.49140801 118.29892243 -318.3125 159.0625 C-318.31067719 159.92339233 -318.30885437 160.78428467 -318.30697632 161.67126465 C-318.26075424 174.63934335 -317.84069766 187.29653193 -315 200 C-314.82307617 200.79664063 -314.64615234 201.59328125 -314.46386719 202.4140625 C-313.1790215 208.00613699 -311.67290485 213.51220198 -310 219 C-309.78504883 219.70543945 -309.57009766 220.41087891 -309.34863281 221.13769531 C-300.18211299 250.44589545 -284.12542719 275.94097222 -263 298 C-262.52836426 298.49886719 -262.05672852 298.99773437 -261.57080078 299.51171875 C-227.15703324 335.77844567 -177.46288079 357.09430972 -127.62695312 358.90795898 C-78.84703666 360.05209983 -30.02250876 344.13167043 7 312 C8.24330078 310.92298828 8.24330078 310.92298828 9.51171875 309.82421875 C47.41598217 276.32327636 72.01491977 230.60272154 77 180 C77.14717603 177.21434471 77.18617302 174.43374324 77.203125 171.64453125 C77.21013931 170.86895874 77.21715363 170.09338623 77.22438049 169.29431152 C77.24180807 166.80031474 77.2482342 164.30655547 77.25 161.8125 C77.25067474 160.96029877 77.25134949 160.10809753 77.25204468 159.23007202 C77.23574128 146.27588161 76.797137 133.69724002 74 121 C73.83371094 120.22849609 73.66742188 119.45699219 73.49609375 118.66210938 C65.19121344 81.41318323 47.07521372 49.58871591 21 22 C20.19691406 21.14277344 19.39382813 20.28554687 18.56640625 19.40234375 C-15.56336657 -15.96036011 -65.29572281 -36.34786379 -114.07275391 -37.31924438 C-160.15182165 -37.97723337 -205.64662056 -25.16835288 -242 4 Z " fill="#030303" transform="translate(370,62)"/>
<path d="M0 0 C10.33107235 3.69492089 17.11322583 11.41112626 22 21 C25.07618862 28.56229702 24.1304356 37.03225229 23 45 C22.01 45.99 22.01 45.99 21 47 C20.01 44.03 19.02 41.06 18 38 C18.18304688 39.00417969 18.36609375 40.00835937 18.5546875 41.04296875 C19.00803269 45.07137824 18.7511202 48.31991163 18.125 52.3125 C17.85042969 54.13201172 17.85042969 54.13201172 17.5703125 55.98828125 C17 59 17 59 16 61 C15.34 61 14.68 61 14 61 C13.67128906 59.74896484 13.67128906 59.74896484 13.3359375 58.47265625 C10.36472564 47.84421514 10.36472564 47.84421514 4 39 C-0.96828591 39 -1.86634913 40.19000321 -5.625 43.3125 C-34.29443316 66.26624409 -68.77317201 78.2209521 -105.375 78.25 C-106.13666473 78.25067474 -106.89832947 78.25134949 -107.68307495 78.25204468 C-119.05365167 78.23603126 -129.93313934 77.77787128 -141 75 C-141.69222656 74.82839355 -142.38445312 74.65678711 -143.09765625 74.47998047 C-176.3354406 66.04234873 -205.11072292 47.45670549 -228 22 C-228 21.34 -228 20.68 -228 20 C-224.8319934 21.36846938 -223.08547731 22.81914852 -220.9375 25.5 C-195.22767378 55.59402816 -155.06128642 72.39257642 -116.26733398 75.83886719 C-73.95797373 78.84567001 -35.5032468 63.4198842 -2.73046875 37.62890625 C-2.15941406 37.09136719 -1.58835937 36.55382812 -1 36 C-0.77420238 33.90978356 -0.77420238 33.90978356 -2.36328125 32.51953125 C-7.87660514 27.69122957 -13.76203337 23.82633265 -20 20 C-22.03703874 18.70583527 -24.02480805 17.38797272 -26 16 C-26 15.67 -26 15.34 -26 15 C-1.63837067 13.17673471 -1.63837067 13.17673471 4.69213867 18.57666016 C6.64243984 20.60236046 8.3905939 22.69496824 10 25 C9.64808594 24.55269531 9.29617188 24.10539062 8.93359375 23.64453125 C5.34528673 19.25049472 1.73391163 16.12438167 -3 13 C-2.69128878 11.20767663 -2.37790936 9.41615679 -2.0625 7.625 C-1.88847656 6.62726563 -1.71445312 5.62953125 -1.53515625 4.6015625 C-1 2 -1 2 0 0 Z M12 26 C12.66 27.65 13.32 29.3 14 31 C14.33 30.34 14.66 29.68 15 29 C14.01 28.01 13.02 27.02 12 26 Z M15 31 C16 33 16 33 16 33 Z " fill="#32CBF3" transform="translate(355,304)"/>
<path d="M0 0 C2.66669734 4.000046 3.46783931 7.40395049 2.6015625 12.2109375 C-0.87509877 24.1951934 -11.59538795 31.27947732 -22.03793335 37.1446228 C-26.14804848 39.2909179 -30.33946708 41.2518799 -34.56323242 43.16308594 C-36.73147329 44.14491205 -38.88845872 45.14885115 -41.04492188 46.15625 C-42.42910256 46.79553886 -43.81384693 47.43360901 -45.19921875 48.0703125 C-46.16005623 48.51541672 -46.16005623 48.51541672 -47.14030457 48.96951294 C-49.95640598 50.23757211 -51.87167846 51 -55 51 C-54.43353832 47.22136739 -53.42040543 44.61872211 -51.3125 41.4375 C-50.59513672 40.32181641 -50.59513672 40.32181641 -49.86328125 39.18359375 C-45.75788952 34.37245333 -39.97062574 31.88409738 -34.375 29.1875 C-14.52934489 20.11555444 -14.52934489 20.11555444 -1 4 C-0.23959428 1.73014106 -0.23959428 1.73014106 0 0 Z " fill="#A2A3A3" transform="translate(361,221)"/>
<path d="M0 0 C0.75112061 0.00182281 1.50224121 0.00364563 2.27612305 0.00552368 C13.23179178 0.05030202 23.60050453 0.5353445 34.25 3.3125 C35.70690322 3.65679222 37.16394072 4.00051657 38.62109375 4.34375 C49.74418721 7.08780462 59.972385 11.29672104 70.25 16.3125 C70.91128906 16.63089844 71.57257813 16.94929688 72.25390625 17.27734375 C85.59578634 23.77308739 97.3272182 32.27725383 108.17578125 42.390625 C109.90339065 43.99134783 111.65535228 45.4769563 113.5 46.9375 C116.7658597 49.7580152 119.74499798 52.78595461 122.25 56.3125 C122.25 56.9725 122.25 57.6325 122.25 58.3125 C119.0819934 56.94403062 117.33547731 55.49335148 115.1875 52.8125 C90.15647781 23.51302981 50.52312298 5.80096937 12.54296875 2.58984375 C-31.55623928 -0.50987601 -72.82091761 14.78074519 -106.18164062 43.25708008 C-114.47799352 49.96685825 -114.47799352 49.96685825 -120.75 58.3125 C-121.41 58.3125 -122.07 58.3125 -122.75 58.3125 C-121.28998084 52.89397818 -117.62553869 49.91206054 -113.625 46.25 C-112.55354736 45.26253784 -112.55354736 45.26253784 -111.46044922 44.25512695 C-99.00232877 32.94608297 -85.76604979 23.89026891 -70.75 16.3125 C-70.03118652 15.94640625 -69.31237305 15.5803125 -68.57177734 15.203125 C-47.14930538 4.47974751 -23.84358044 -0.12019261 0 0 Z " fill="#111413" transform="translate(249.75,62.6875)"/>
<path d="M0 0 C3.1680066 1.36846938 4.91452269 2.81914852 7.0625 5.5 C32.77232622 35.59402816 72.93871358 52.39257642 111.73266602 55.83886719 C151.85170052 58.69000994 191.85337215 45.14552542 222.5625 19.375 C223.32691406 18.70210938 224.09132813 18.02921875 224.87890625 17.3359375 C227 16 227 16 229.27734375 16.2890625 C229.84582031 16.52367187 230.41429687 16.75828125 231 17 C228.37401045 18.90981058 225.74736966 20.81861853 223.1171875 22.72265625 C221.19229904 24.12893441 219.27829998 25.55043091 217.3828125 26.99609375 C199.33459058 40.62826137 178.810529 49.40143355 157 55 C156.30841797 55.18079102 155.61683594 55.36158203 154.90429688 55.54785156 C134.02322248 60.72183207 107.79838614 60.22056265 87 55 C86.30777344 54.82839355 85.61554688 54.65678711 84.90234375 54.47998047 C51.6645594 46.04234873 22.88927708 27.45670549 0 2 C0 1.34 0 0.68 0 0 Z " fill="#020202" transform="translate(127,324)"/>
<path d="M0 0 C2.66669734 4.000046 3.46783931 7.40395049 2.6015625 12.2109375 C-0.74205356 23.73657874 -10.28186213 29.88811088 -20 36 C-21.3217864 36.37652306 -22.65423793 36.72104959 -24 37 C-24.20086443 33.28400809 -24.1519437 32.22791555 -22 29 C-22.66 28.67 -23.32 28.34 -24 28 C-23.34 28 -22.68 28 -22 28 C-22.33 27.01 -22.66 26.02 -23 25 C-18.92507108 21.37784096 -14.80708768 18.15328214 -10.3125 15.0625 C-4.89581288 11.17645423 -2.22795784 7.99086299 -0.25 1.5625 C-0.1675 1.046875 -0.085 0.53125 0 0 Z " fill="#858585" transform="translate(361,221)"/>
<path d="M0 0 C3.85241877 1.62502612 7.64003645 3.36468787 11.40771484 5.17675781 C12.14070801 5.52609375 12.87370117 5.87542969 13.62890625 6.23535156 C27.64918679 13.01725471 39.94054438 21.63401543 51.33349609 32.25488281 C53.06110549 33.85560565 54.81306712 35.34121411 56.65771484 36.80175781 C59.92357454 39.62227301 62.90271283 42.65021242 65.40771484 46.17675781 C65.40771484 46.83675781 65.40771484 47.49675781 65.40771484 48.17675781 C62.23970824 46.80828844 60.49319216 45.35760929 58.34521484 42.67675781 C31.90653829 11.72959115 -8.80117067 -4.60342978 -48.59228516 -7.82324219 C-36.56383012 -15.01783212 -11.80259386 -4.70768242 0 0 Z " fill="#101413" transform="translate(306.59228515625,72.8232421875)"/>
<path d="M0 0 C4.04128452 -0.1457733 8.08188906 -0.23423181 12.125 -0.3125 C13.83816406 -0.3753418 13.83816406 -0.3753418 15.5859375 -0.43945312 C25.08816964 -0.57756696 25.08816964 -0.57756696 28.8046875 2.51953125 C29.52914063 3.33808594 30.25359375 4.15664063 31 5 C30.01 5 29.02 5 28 5 C25.11785113 5.88214887 25.11785113 5.88214887 23 7 C23 7.66 23 8.32 23 9 C23.66 9 24.32 9 25 9 C24.979375 10.11375 24.95875 11.2275 24.9375 12.375 C24.73619282 15.83215921 24.73619282 15.83215921 26 18 C22.05920295 16.25395378 18.71075449 13.71708279 15.25 11.1875 C11.27819162 8.30920564 7.31686185 5.49168106 3.125 2.9375 C2.09375 2.298125 1.0625 1.65875 0 1 C0 0.67 0 0.34 0 0 Z " fill="#2FB8E3" transform="translate(329,319)"/>
<path d="M0 0 C3.49490421 0.64720448 6.01166882 2.11263294 9 4 C9.66 4.33 10.32 4.66 11 5 C11.99 4.67 12.98 4.34 14 4 C15.32 4.33 16.64 4.66 18 5 C18.66 9.29 19.32 13.58 20 18 C17.51275097 14.68366796 15.76890085 11.70626844 14 8 C12.35 8 10.7 8 9 8 C8.67 10.31 8.34 12.62 8 15 C7.34 15 6.68 15 6 15 C6.33 16.98 6.66 18.96 7 21 C6.01 20.34 5.02 19.68 4 19 C4 18.34 4 17.68 4 17 C3.01 16.67 2.02 16.34 1 16 C-1.25218057 12.058684 -1.01018369 9.34378986 0 5 C-0.66 5 -1.32 5 -2 5 C-1.34 3.35 -0.68 1.7 0 0 Z " fill="#2DC3EE" transform="translate(354,323)"/>
<path d="M0 0 C1.75 1.125 1.75 1.125 3.1875 3.875 C3.75 7.125 3.75 7.125 2.69140625 9.62109375 C0.22917511 12.79672787 -2.08232024 13.83908551 -5.75 15.4375 C-6.8946875 15.94925781 -8.039375 16.46101563 -9.21875 16.98828125 C-12.25 18.125 -12.25 18.125 -15.25 18.125 C-14.32462768 11.95222229 -11.18911305 6.90524208 -6.66015625 2.62109375 C-4.47114406 1.02250215 -2.7201451 0.15111917 0 0 Z " fill="#B2B4B5" transform="translate(321.25,253.875)"/>
<path d="M0 0 C0.56847656 0.23460937 1.13695312 0.46921875 1.72265625 0.7109375 C-0.9033333 2.62074808 -3.52997409 4.52955603 -6.16015625 6.43359375 C-8.08504471 7.83987191 -9.99904377 9.26136841 -11.89453125 10.70703125 C-27.27387047 22.32334066 -44.57946266 30.54700692 -62.96484375 36.1484375 C-63.8146582 36.40778076 -64.66447266 36.66712402 -65.54003906 36.93432617 C-69.53601551 38.09908524 -73.06811191 39.06242122 -77.27734375 38.7109375 C-76.94734375 38.0509375 -76.61734375 37.3909375 -76.27734375 36.7109375 C-73.44740951 35.90368062 -70.63985452 35.19414784 -67.77734375 34.5234375 C-44.17187763 28.62651979 -22.65510582 17.11766904 -4.3984375 1.046875 C-2.27734375 -0.2890625 -2.27734375 -0.2890625 0 0 Z " fill="#040506" transform="translate(356.27734375,340.2890625)"/>
<path d="M0 0 C3.1680066 1.36846938 4.91452269 2.81914852 7.0625 5.5 C19.63425649 20.21557181 36.09165488 30.88932276 53 40 C50 41 50 41 46.6640625 39.48046875 C45.30983445 38.73018518 43.96390988 37.96478977 42.625 37.1875 C41.91327637 36.77951172 41.20155273 36.37152344 40.46826172 35.95117188 C25.36778421 27.09114622 11.68597009 14.9967538 0 2 C0 1.34 0 0.68 0 0 Z " fill="#1D1D1E" transform="translate(127,324)"/>
<path d="M0 0 C2.41310211 3.61965316 2.7897988 5.6558418 3 10 C1.97196806 14.72575924 0.4878718 19.5121282 -3 23 C-3.66 23 -4.32 23 -5 23 C-8 16.375 -8 16.375 -8 13 C-7.236875 12.278125 -6.47375 11.55625 -5.6875 10.8125 C-2.35792628 7.32806239 -1.46492851 4.54898852 0 0 Z " fill="#696968" transform="translate(361,221)"/>
<path d="M0 0 C0.33 0 0.66 0 1 0 C1.125 7.75 1.125 7.75 0 10 C-0.30791869 12.33077343 -0.50895274 14.66241896 -0.71875 17.00390625 C-1 19 -1 19 -2 20 C-2.23075082 21.34747084 -2.41153063 22.70377565 -2.5625 24.0625 C-2.706875 25.361875 -2.85125 26.66125 -3 28 C-3.66 28 -4.32 28 -5 28 C-4.34 31.3 -3.68 34.6 -3 38 C-0.03 37.34 2.94 36.68 6 36 C2.19791273 39.30616284 -3.83581485 43 -9 43 C-6.1706762 28.62633651 -3.264881 14.28157444 0 0 Z " fill="#2A8AB3" transform="translate(258,147)"/>
<path d="M0 0 C0.66 0 1.32 0 2 0 C3.125 6.625 3.125 6.625 2 10 C0.68 10 -0.64 10 -2 10 C-2.33 10.99 -2.66 11.98 -3 13 C-2.34 13.33 -1.68 13.66 -1 14 C-2.4540625 14.8971875 -2.4540625 14.8971875 -3.9375 15.8125 C-7.23052042 17.71127509 -7.23052042 17.71127509 -8 21 C-8.66 21 -9.32 21 -10 21 C-8.47146065 16.72813475 -6.28490519 13.00673137 -3.875 9.1875 C-3.31619141 8.2912793 -3.31619141 8.2912793 -2.74609375 7.37695312 C-1.8342952 5.91573749 -0.91764024 4.45755415 0 3 C-8.83941797 2.89565611 -15.42269938 4.61593626 -23.14868164 8.64868164 C-24.74291533 9.47798913 -26.36935518 10.24479839 -28 11 C-28.66 10.67 -29.32 10.34 -30 10 C-28.35 9.34 -26.7 8.68 -25 8 C-25 7.34 -25 6.68 -25 6 C-23.35 6 -21.7 6 -20 6 C-20 5.34 -20 4.68 -20 4 C-19.01 4 -18.02 4 -17 4 C-16.67 3.34 -16.34 2.68 -16 2 C-13.28553021 1.68758545 -10.66090639 1.48663408 -7.9375 1.375 C-7.17888672 1.33632812 -6.42027344 1.29765625 -5.63867188 1.2578125 C-3.75952805 1.16326438 -1.87979664 1.08053244 0 1 C0 0.67 0 0.34 0 0 Z " fill="#278DBB" transform="translate(314,163)"/>
<path d="M0 0 C4.22328092 0.58252151 7.27159197 3.05715306 10.625 5.5 C11.24310547 5.94561279 11.86121094 6.39122559 12.49804688 6.8503418 C17.22292939 10.31015538 21.60715164 14.0464601 25.890625 18.04296875 C27.63008262 19.65679887 29.3912493 21.15428746 31.25 22.625 C34.5158597 25.4455152 37.49499798 28.47345461 40 32 C40 32.66 40 33.32 40 34 C36.8319934 32.63153062 35.08547731 31.18085148 32.9375 28.5 C25.23220548 19.48074999 16.32739215 12.57161309 6.57470703 5.93457031 C5.86685059 5.45084961 5.15899414 4.96712891 4.4296875 4.46875 C3.79272949 4.04013672 3.15577148 3.61152344 2.49951172 3.16992188 C1 2 1 2 0 0 Z " fill="#202427" transform="translate(332,87)"/>
<path d="M0 0 C0.66 0.33 1.32 0.66 2 1 C3.28317892 4.84953676 3.06643637 7.94738135 3 12 C0.71296692 13.19725883 -1.57884862 14.38297018 -3.875 15.5625 C-4.52597656 15.90474609 -5.17695313 16.24699219 -5.84765625 16.59960938 C-7.53529857 17.46082891 -9.26579593 18.23686703 -11 19 C-11.66 18.67 -12.32 18.34 -13 18 C-12.113125 17.34 -11.22625 16.68 -10.3125 16 C-5.28538456 11.81667935 -2.11219521 6.14456788 0 0 Z " fill="#636566" transform="translate(365,232)"/>
<path d="M0 0 C7.92 0 15.84 0 24 0 C24 0.66 24 1.32 24 2 C20.37 2 16.74 2 13 2 C13.33 3.65 13.66 5.3 14 7 C9.91501512 7 8.72005482 6.57378342 5.3125 4.625 C4.52488281 4.18414062 3.73726563 3.74328125 2.92578125 3.2890625 C1 2 1 2 0 0 Z " fill="#40AACF" transform="translate(329,319)"/>
<path d="M0 0 C-0.6377902 7.52592433 -2.19889833 14.67098882 -4 22 C-4.33 22 -4.66 22 -5 22 C-5.03738281 21.09636719 -5.07476562 20.19273437 -5.11328125 19.26171875 C-5.17902344 18.08222656 -5.24476563 16.90273438 -5.3125 15.6875 C-5.39951172 13.92986328 -5.39951172 13.92986328 -5.48828125 12.13671875 C-5.75784831 9.06258445 -5.75784831 9.06258445 -7.29296875 7.14453125 C-9.18660865 5.87488253 -10.76357903 5.38558982 -13 5 C-11.21046815 4.16209211 -9.41830305 3.32980604 -7.625 2.5 C-6.62726563 2.0359375 -5.62953125 1.571875 -4.6015625 1.09375 C-2 0 -2 0 0 0 Z " fill="#258AB8" transform="translate(360,254)"/>
<path d="M0 0 C3.28330144 2.92348758 3.95866933 5.75457495 5 10 C3.02 11.65 1.04 13.3 -1 15 C-1.66 14.67 -2.32 14.34 -3 14 C-2.67 13.01 -2.34 12.02 -2 11 C-3.32 9.68 -4.64 8.36 -6 7 C-6.99 7.495 -6.99 7.495 -8 8 C-6.88333826 4.65001479 -6.25305075 4.20659778 -3.4375 2.3125 C-2.79683594 1.87550781 -2.15617187 1.43851563 -1.49609375 0.98828125 C-1.00238281 0.66214844 -0.50867188 0.33601562 0 0 Z " fill="#797979" transform="translate(352,235)"/>
<path d="M0 0 C0.66 0.33 1.32 0.66 2 1 C2.23213026 5.75867032 2.01672207 9.64388032 0 14 C-2.82656969 15.87013118 -5.71318349 17.16603163 -9 18 C-9.66 17.67 -10.32 17.34 -11 17 C-10.34 15.68 -9.68 14.36 -9 13 C-7.35 13.33 -5.7 13.66 -4 14 C-3.67 12.68 -3.34 11.36 -3 10 C-3.66 9.67 -4.32 9.34 -5 9 C-5 8.34 -5 7.68 -5 7 C-4.34 7 -3.68 7 -3 7 C-3.66 5.68 -4.32 4.36 -5 3 C-2.625 1.4375 -2.625 1.4375 0 0 Z " fill="#929493" transform="translate(337,245)"/>
<path d="M0 0 C3.66161578 1.22053859 4.16270474 2.36782304 6.1875 5.5625 C6.71730469 6.38878906 7.24710937 7.21507812 7.79296875 8.06640625 C8.19128906 8.70449219 8.58960938 9.34257812 9 10 C9.66 8.68 10.32 7.36 11 6 C11.33 6 11.66 6 12 6 C11.85930804 8.12534659 11.71229079 10.25027529 11.5625 12.375 C11.48128906 13.55835938 11.40007812 14.74171875 11.31640625 15.9609375 C11 19 11 19 10 21 C9.34 21 8.68 21 8 21 C7.75765625 20.154375 7.5153125 19.30875 7.265625 18.4375 C5.33992304 11.91973954 3.2720292 5.95976746 0 0 Z " fill="#4BCDED" transform="translate(361,344)"/>
<path d="M0 0 C0.99 0.33 1.98 0.66 3 1 C2.33333333 3 1.66666667 5 1 7 C1.99 7.33 2.98 7.66 4 8 C5.2676439 10.73030993 5.04311598 11.87352646 4.0625 14.75 C3.711875 15.4925 3.36125 16.235 3 17 C1.02 15.68 -0.96 14.36 -3 13 C-2.69128878 11.20767663 -2.37790936 9.41615679 -2.0625 7.625 C-1.88847656 6.62726563 -1.71445312 5.62953125 -1.53515625 4.6015625 C-1 2 -1 2 0 0 Z " fill="#2EBAE3" transform="translate(355,304)"/>
<path d="M0 0 C4.47375074 0.67106261 8.39624589 2.29973785 12.5 4.125 C13.19544922 4.43123291 13.89089844 4.73746582 14.60742188 5.05297852 C21.26267098 8.03100532 27.64911812 11.42219154 34 15 C33.34 15.66 32.68 16.32 32 17 C31.19820313 16.50371094 30.39640625 16.00742188 29.5703125 15.49609375 C20.11574094 9.79682948 10.36264346 5.75968924 0 2 C0 1.34 0 0.68 0 0 Z " fill="#0A0D0F" transform="translate(299,71)"/>
<path d="M0 0 C0.33 0.66 0.66 1.32 1 2 C0.0625 4.625 0.0625 4.625 -1 7 C-1.66 7 -2.32 7 -3 7 C-3 7.99 -3 8.98 -3 10 C-3.66 10 -4.32 10 -5 10 C-4.87625 10.680625 -4.7525 11.36125 -4.625 12.0625 C-5.1233816 15.9664892 -6.92783555 17.56998419 -9.58984375 20.3515625 C-11.22827378 22.0575008 -11.22827378 22.0575008 -12 25 C-14.0625 26.1875 -14.0625 26.1875 -16 27 C-14.71519319 23.56147518 -13.22472403 20.55241574 -11.25 17.4609375 C-10.7240625 16.63335937 -10.198125 15.80578125 -9.65625 14.953125 C-9.1096875 14.10234375 -8.563125 13.2515625 -8 12.375 C-7.4534375 11.51648438 -6.906875 10.65796875 -6.34375 9.7734375 C-4.25510208 6.49712704 -2.15530994 3.23296491 0 0 Z " fill="#2C89B5" transform="translate(299,190)"/>
<path d="M0 0 C0.93005859 0.60134766 0.93005859 0.60134766 1.87890625 1.21484375 C9.82031053 6.31260108 17.89135173 11.17420528 26 16 C23 17 23 17 19.453125 15.3046875 C18.04609578 14.50523908 16.64524847 13.69483578 15.25 12.875 C14.21359375 12.2871875 14.21359375 12.2871875 13.15625 11.6875 C8.56609806 9.04729982 4.14149493 6.30669098 0 3 C0 2.01 0 1.02 0 0 Z " fill="#161717" transform="translate(154,348)"/>
<path d="M0 0 C0.55558594 0.2475 1.11117188 0.495 1.68359375 0.75 C-0.92600453 2.64788966 -3.53646999 4.54435159 -6.15234375 6.43359375 C-8.23972645 7.96176405 -10.30819798 9.51615274 -12.35546875 11.09765625 C-13.31195313 11.82855469 -14.2684375 12.55945313 -15.25390625 13.3125 C-16.12917969 13.99441406 -17.00445312 14.67632812 -17.90625 15.37890625 C-20.31640625 16.75 -20.31640625 16.75 -22.6328125 16.46484375 C-23.18839844 16.22894531 -23.74398438 15.99304688 -24.31640625 15.75 C-23.64996094 15.34910156 -22.98351562 14.94820313 -22.296875 14.53515625 C-15.93978861 10.61421206 -10.2929178 6.35930637 -4.7265625 1.375 C-2.31640625 -0.25 -2.31640625 -0.25 0 0 Z " fill="#384951" transform="translate(356.31640625,340.25)"/>
<path d="M0 0 C1.65 1.32 3.3 2.64 5 4 C5 3.34 5 2.68 5 2 C7.31 2.33 9.62 2.66 12 3 C12.66 7.29 13.32 11.58 14 16 C11 12 11 12 9.75 8.8125 C8.20346645 5.59115804 8.20346645 5.59115804 4.3125 5.125 C2.6728125 5.063125 2.6728125 5.063125 1 5 C0.67 3.35 0.34 1.7 0 0 Z " fill="#43C6EC" transform="translate(360,325)"/>
<path d="M0 0 C-1.11440652 3.34321955 -1.97472343 4.06019619 -4.625 6.25 C-11.68768648 11.88338558 -11.68768648 11.88338558 -17 19 C-17.66 19 -18.32 19 -19 19 C-17.55751845 13.45280991 -13.5891139 10.39827533 -9.5 6.6875 C-8.81035156 6.04232422 -8.12070313 5.39714844 -7.41015625 4.73242188 C-2.27209821 0 -2.27209821 0 0 0 Z " fill="#030304" transform="translate(146,102)"/>
<path d="M0 0 C3 1 3 1 4.375 3.75 C5 7 5 7 3.875 9.75 C1.96856741 12.03771911 0.79059619 13.04073256 -2 14 C-2.99 14 -3.98 14 -5 14 C-5 13.34 -5 12.68 -5 12 C-3.35 11.34 -1.7 10.68 0 10 C0 6.7 0 3.4 0 0 Z " fill="#A9A8A8" transform="translate(320,254)"/>
<path d="M0 0 C2.1875 0.3125 2.1875 0.3125 4 1 C3.814375 1.598125 3.62875 2.19625 3.4375 2.8125 C2.77906313 5.16408762 2.77906313 5.16408762 4 8 C3.67 8.66 3.34 9.32 3 10 C2.01 10 1.02 10 0 10 C-0.99 7.69 -1.98 5.38 -3 3 C-1.75 1.4375 -1.75 1.4375 0 0 Z " fill="#9C9B9B" transform="translate(330,249)"/>
<path d="M0 0 C2.125 1.5 2.125 1.5 4 4 C3.74623625 6.89070012 2.92790671 9.21627986 2 12 C1.34 12 0.68 12 0 12 C-3 5.375 -3 5.375 -3 2 C-2.01 1.34 -1.02 0.68 0 0 Z " fill="#70706F" transform="translate(356,232)"/>
<path d="M0 0 C0.33 0.66 0.66 1.32 1 2 C-0.24493748 4.28974316 -1.52641528 6.44190034 -2.9375 8.625 C-3.32357422 9.23601562 -3.70964844 9.84703125 -4.10742188 10.4765625 C-5.06446326 11.9889242 -6.03132811 13.49506117 -7 15 C-9 11.25 -9 11.25 -9 9 C-8.01 8.34 -7.02 7.68 -6 7 C-5.27617533 4.94074861 -5.27617533 4.94074861 -5 3 C-4.34 3 -3.68 3 -3 3 C-1.37485532 1.54166642 -1.37485532 1.54166642 0 0 Z " fill="#268FBE" transform="translate(338,206)"/>
<path d="M0 0 C0.99 0.33 1.98 0.66 3 1 C3 2.98 3 4.96 3 7 C-0.465 8.485 -0.465 8.485 -4 10 C-4.33 9.34 -4.66 8.68 -5 8 C-4.00390625 6.0546875 -4.00390625 6.0546875 -2.5625 3.875 C-2.08941406 3.15054688 -1.61632812 2.42609375 -1.12890625 1.6796875 C-0.75636719 1.12539062 -0.38382812 0.57109375 0 0 Z " fill="#6B6A6A" transform="translate(363,237)"/>
<path d="M0 0 C0.05395478 1.62463842 0.09277195 3.24978541 0.125 4.875 C0.14820313 5.77992188 0.17140625 6.68484375 0.1953125 7.6171875 C0 10 0 10 -2 12 C-2.52992692 10.54494642 -3.0486789 9.08581873 -3.5625 7.625 C-3.85253906 6.81289063 -4.14257812 6.00078125 -4.44140625 5.1640625 C-5 3 -5 3 -4 1 C-1 0 -1 0 0 0 Z " fill="#47D2F3" transform="translate(378,339)"/>
<path d="M0 0 C0.33 0 0.66 0 1 0 C1.05429959 1.74965358 1.09292823 3.49979787 1.125 5.25 C1.14820313 6.22453125 1.17140625 7.1990625 1.1953125 8.203125 C0.99862781 11.0196498 0.44568916 12.60949036 -1 15 C-1.36220266 13.20994059 -1.71452469 11.41787943 -2.0625 9.625 C-2.25972656 8.62726563 -2.45695312 7.62953125 -2.66015625 6.6015625 C-3 4 -3 4 -2 2 C-1.34 1.34 -0.68 0.68 0 0 Z " fill="#218DC1" transform="translate(348,297)"/>
<path d="M0 0 C1.32 0.33 2.64 0.66 4 1 C4 2.98 4 4.96 4 7 C2.02 7.33 0.04 7.66 -2 8 C-2.33 7.01 -2.66 6.02 -3 5 C-1.5625 2.3125 -1.5625 2.3125 0 0 Z " fill="#B6BBBA" transform="translate(312,262)"/>
<path d="M0 0 C-4.62 2.64 -9.24 5.28 -14 8 C-14.66 7.34 -15.32 6.68 -16 6 C-13.9021477 4.79994469 -11.7979751 3.61497017 -9.6875 2.4375 C-8.79514648 1.92413086 -8.79514648 1.92413086 -7.88476562 1.40039062 C-3.33984375 -1.11328125 -3.33984375 -1.11328125 0 0 Z " fill="#131619" transform="translate(334,358)"/>
<path d="M0 0 C1.98 0 3.96 0 6 0 C4.6302836 3.99500618 2.74277578 6.80009492 0 10 C0 6.7 0 3.4 0 0 Z " fill="#268ABB" transform="translate(356,170)"/>
<path d="M0 0 C3.49844386 0.63389235 5.84086876 2.05177694 8.75 4.0625 C9.94882812 4.88427734 9.94882812 4.88427734 11.171875 5.72265625 C12.07679688 6.35494141 12.07679688 6.35494141 13 7 C12.67 7.99 12.34 8.98 12 10 C9.99708788 8.52464063 7.99763223 7.04497707 6 5.5625 C5.42765625 5.14162109 4.8553125 4.72074219 4.265625 4.28710938 C2.82546081 3.21555864 1.41048004 2.11033324 0 1 C0 0.67 0 0.34 0 0 Z " fill="#191C1E" transform="translate(332,87)"/>
<path d="M0 0 C2.49415272 0.99766109 3.78740335 1.68616685 5.3125 3.9375 C6 6 6 6 5 9 C4.34 9 3.68 9 3 9 C2.67 8.01 2.34 7.02 2 6 C0.50014391 4.33289654 0.50014391 4.33289654 -1 3 C-0.67 2.01 -0.34 1.02 0 0 Z " fill="#45CCF1" transform="translate(371,319)"/>
<path d="M0 0 C0.66 0.33 1.32 0.66 2 1 C1.484375 1.7425 0.96875 2.485 0.4375 3.25 C-1.24942772 5.83215454 -1.24942772 5.83215454 -0.6875 8.3125 C-0.460625 8.869375 -0.23375 9.42625 0 10 C-1.65 10.33 -3.3 10.66 -5 11 C-4.46884894 6.48521602 -2.63379708 3.65333143 0 0 Z " fill="#94A3AA" transform="translate(311,261)"/>
<path d="M0 0 C0.66 0.66 1.32 1.32 2 2 C1.02526874 3.66926454 0.04510211 5.33535642 -0.9375 7 C-1.48277344 7.928125 -2.02804687 8.85625 -2.58984375 9.8125 C-3.05519531 10.534375 -3.52054687 11.25625 -4 12 C-4.33 12 -4.66 12 -5 12 C-5.25 9.25 -5.25 9.25 -5 6 C-3.0625 3.75 -3.0625 3.75 -1 2 C-0.67 1.34 -0.34 0.68 0 0 Z " fill="#2F8DBC" transform="translate(321,231)"/>
<path d="M0 0 C1.65 1.32 3.3 2.64 5 4 C5 3.34 5 2.68 5 2 C6.32 2.33 7.64 2.66 9 3 C9 3.99 9 4.98 9 6 C6.36 5.67 3.72 5.34 1 5 C0.67 3.35 0.34 1.7 0 0 Z " fill="#3EBDE2" transform="translate(360,325)"/>
<path d="M0 0 C2.33944736 0.28730055 4.6739143 0.61936779 7 1 C7 2.32 7 3.64 7 5 C1.25 3.25 1.25 3.25 -1 1 C-0.67 0.67 -0.34 0.34 0 0 Z " fill="#2FA7CD" transform="translate(332,320)"/>
<path d="M0 0 C0.33 0 0.66 0 1 0 C1 1.98 1 3.96 1 6 C1.66 6.33 2.32 6.66 3 7 C0.53721199 8.231394 -1.2795055 8.07159196 -4 8 C-2.87548273 5.0280615 -1.77706209 2.66559313 0 0 Z " fill="#288ABA" transform="translate(269,238)"/>
<path d="M0 0 C0.99 0.33 1.98 0.66 3 1 C3.33 2.98 3.66 4.96 4 7 C2.68 7 1.36 7 0 7 C-0.33 6.34 -0.66 5.68 -1 5 C-0.34 5 0.32 5 1 5 C1 4.01 1 3.02 1 2 C0.34 1.67 -0.32 1.34 -1 1 C-0.67 0.67 -0.34 0.34 0 0 Z " fill="#37DEFD" transform="translate(370,342)"/>
<path d="M0 0 C2.52259061 1.97420135 2.9929808 2.96745642 3.6875 6.1875 C3.790625 7.115625 3.89375 8.04375 4 9 C2.35 8.01 0.7 7.02 -1 6 C-0.67 4.02 -0.34 2.04 0 0 Z " fill="#38B0D8" transform="translate(353,311)"/>
<path d="M0 0 C5.875 3.75 5.875 3.75 7 6 C4.6568787 5.74438677 2.32156597 5.40729228 0 5 C-0.33 4.34 -0.66 3.68 -1 3 C-0.67 2.01 -0.34 1.02 0 0 Z " fill="#39BCE1" transform="translate(359,306)"/>
<path d="M0 0 C0.66 0.99 1.32 1.98 2 3 C1.01 3.33 0.02 3.66 -1 4 C-1 4.99 -1 5.98 -1 7 C-1.66 7 -2.32 7 -3 7 C-3.33 8.32 -3.66 9.64 -4 11 C-4.66 10.67 -5.32 10.34 -6 10 C-4.02 6.7 -2.04 3.4 0 0 Z " fill="#2C84B3" transform="translate(231,298)"/>
<path d="M0 0 C2 3 2 3 2 5 C1.01 5 0.02 5 -1 5 C-1 5.66 -1 6.32 -1 7 C-1.99 7.33 -2.98 7.66 -4 8 C-2.87548273 5.0280615 -1.77706209 2.66559313 0 0 Z " fill="#288AB5" transform="translate(242,281)"/>
<path d="M0 0 C0.66 0 1.32 0 2 0 C2.75 1.75 2.75 1.75 3 4 C1.0625 6.25 1.0625 6.25 -1 8 C-1.93065133 5.39417629 -2.14917407 4.35801776 -1.0625 1.75 C-0.711875 1.1725 -0.36125 0.595 0 0 Z " fill="#258FBF" transform="translate(364,160)"/>
<path d="M0 0 C1.37245106 2.74490212 0.93580311 4.12060581 0 7 C-2.0625 8.3125 -2.0625 8.3125 -4 9 C-3.46930939 5.17902761 -2.50298434 2.93828597 0 0 Z " fill="#278ABB" transform="translate(237,289)"/>
<path d="M0 0 C0.99 0.33 1.98 0.66 3 1 C1.68 3.31 0.36 5.62 -1 8 C-1.33 8 -1.66 8 -2 8 C-2.20086443 4.28400809 -2.1519437 3.22791555 0 0 Z " fill="#2B8EBF" transform="translate(325,224)"/>
<path d="M0 0 C0 1.65 0 3.3 0 5 C-1.32 4.34 -2.64 3.68 -4 3 C-4.33 3.99 -4.66 4.98 -5 6 C-5.33 5.34 -5.66 4.68 -6 4 C-2.25 0 -2.25 0 0 0 Z " fill="#2184C7" transform="translate(286,216)"/>
<path d="M0 0 C0.99 0 1.98 0 3 0 C3 0.66 3 1.32 3 2 C2.34 2 1.68 2 1 2 C1.33 3.98 1.66 5.96 2 8 C1.01 7.34 0.02 6.68 -1 6 C-1.25 3.4375 -1.25 3.4375 -1 1 C-0.67 0.67 -0.34 0.34 0 0 Z " fill="#3EBCED" transform="translate(359,336)"/>
<path d="M0 0 C0.66 0 1.32 0 2 0 C0.8141763 3.37503669 -0.27573689 5.64722731 -3 8 C-3 6.35 -3 4.7 -3 3 C-2.01 3 -1.02 3 0 3 C0 2.01 0 1.02 0 0 Z " fill="#328CB7" transform="translate(301,263)"/>
<path d="M0 0 C1.32 0.33 2.64 0.66 4 1 C4 1.66 4 2.32 4 3 C2.35 3.66 0.7 4.32 -1 5 C-1.33 4.34 -1.66 3.68 -2 3 C-1.34 2.01 -0.68 1.02 0 0 Z " fill="#737076" transform="translate(360,242)"/>
</svg>
